<svg xmlns="http://www.w3.org/2000/svg" width="512" height="512" viewBox="0 0 512 512">
  <defs><linearGradient id="g" x1="0" y1="0" x2="1" y2="1">
    <stop offset="0" stop-color="#8B7BF9"/><stop offset="1" stop-color="#4F46E5"/>
  </linearGradient></defs>
  <rect width="512" height="512" fill="url(#g)"/>
  <line x1="64" y1="0" x2="64" y2="512" stroke="#fff" stroke-opacity="0.14" stroke-width="3"/><line x1="0" y1="64" x2="512" y2="64" stroke="#fff" stroke-opacity="0.14" stroke-width="3"/><line x1="128" y1="0" x2="128" y2="512" stroke="#fff" stroke-opacity="0.14" stroke-width="3"/><line x1="0" y1="128" x2="512" y2="128" stroke="#fff" stroke-opacity="0.14" stroke-width="3"/><line x1="192" y1="0" x2="192" y2="512" stroke="#fff" stroke-opacity="0.14" stroke-width="3"/><line x1="0" y1="192" x2="512" y2="192" stroke="#fff" stroke-opacity="0.14" stroke-width="3"/><line x1="256" y1="0" x2="256" y2="512" stroke="#fff" stroke-opacity="0.14" stroke-width="3"/><line x1="0" y1="256" x2="512" y2="256" stroke="#fff" stroke-opacity="0.14" stroke-width="3"/><line x1="320" y1="0" x2="320" y2="512" stroke="#fff" stroke-opacity="0.14" stroke-width="3"/><line x1="0" y1="320" x2="512" y2="320" stroke="#fff" stroke-opacity="0.14" stroke-width="3"/><line x1="384" y1="0" x2="384" y2="512" stroke="#fff" stroke-opacity="0.14" stroke-width="3"/><line x1="0" y1="384" x2="512" y2="384" stroke="#fff" stroke-opacity="0.14" stroke-width="3"/><line x1="448" y1="0" x2="448" y2="512" stroke="#fff" stroke-opacity="0.14" stroke-width="3"/><line x1="0" y1="448" x2="512" y2="448" stroke="#fff" stroke-opacity="0.14" stroke-width="3"/>
  <g stroke="#fff" fill="#fff" stroke-linecap="round"><line x1="148" y1="194" x2="240" y2="194" stroke-width="28" stroke-linecap="round"/><line x1="194" y1="148" x2="194" y2="240" stroke-width="28" stroke-linecap="round"/></g>
  <g stroke="#fff" fill="#fff" stroke-linecap="round"><line x1="280.28" y1="156.28" x2="355.72" y2="231.72" stroke-width="28" stroke-linecap="round"/><line x1="280.28" y1="231.72" x2="355.72" y2="156.28" stroke-width="28" stroke-linecap="round"/></g>
  <g stroke="#fff" fill="#fff" stroke-linecap="round"><line x1="148" y1="318" x2="240" y2="318" stroke-width="28" stroke-linecap="round"/></g>
  <g stroke="#fff" fill="#fff" stroke-linecap="round"><line x1="272" y1="318" x2="364" y2="318" stroke-width="28" stroke-linecap="round"/><circle cx="318" cy="284.88" r="17.36"/><circle cx="318" cy="351.12" r="17.36"/></g>
</svg>